<mxfile host="Electron" modified="2024-05-27T03:34:40.173Z" agent="Mozilla/5.0 (Macintosh; Intel Mac OS X 10_15_7) AppleWebKit/537.36 (KHTML, like Gecko) draw.io/24.2.5 Chrome/120.0.6099.109 Electron/28.1.0 Safari/537.36" etag="6dFtZBzvolXl8uSEUc-h" version="24.2.5" type="device">
  <diagram name="Page-1" id="jLfANhEBMJeioD_crJn-">
    <mxGraphModel dx="1224" dy="1968" grid="1" gridSize="10" guides="1" tooltips="1" connect="1" arrows="1" fold="1" page="1" pageScale="1" pageWidth="850" pageHeight="1100" math="0" shadow="0">
      <root>
        <mxCell id="0" />
        <mxCell id="1" parent="0" />
        <mxCell id="A27N2ptXIXJFrek5TOaO-5" value="Heroku Pipeline" style="rounded=0;whiteSpace=wrap;html=1;sketch=1;hachureGap=4;jiggle=2;curveFitting=1;fontFamily=Architects Daughter;fontSource=https%3A%2F%2Ffonts.googleapis.com%2Fcss%3Ffamily%3DArchitects%2BDaughter;fontSize=16;verticalAlign=bottom;fillColor=#f5f5f5;fontColor=#333333;strokeColor=#666666;" vertex="1" parent="1">
          <mxGeometry x="150" y="170" width="570" height="220" as="geometry" />
        </mxCell>
        <mxCell id="A27N2ptXIXJFrek5TOaO-15" style="edgeStyle=orthogonalEdgeStyle;curved=1;rounded=0;hachureGap=4;orthogonalLoop=1;jettySize=auto;html=1;exitX=1;exitY=0.5;exitDx=0;exitDy=0;entryX=0;entryY=0.5;entryDx=0;entryDy=0;strokeColor=default;strokeWidth=2;align=center;verticalAlign=middle;fontFamily=Architects Daughter;fontSource=https%3A%2F%2Ffonts.googleapis.com%2Fcss%3Ffamily%3DArchitects%2BDaughter;fontSize=13;fontColor=default;labelBackgroundColor=default;endArrow=classic;flowAnimation=1;dashed=1;dashPattern=1 4;" edge="1" parent="1" source="A27N2ptXIXJFrek5TOaO-6" target="A27N2ptXIXJFrek5TOaO-7">
          <mxGeometry relative="1" as="geometry" />
        </mxCell>
        <mxCell id="A27N2ptXIXJFrek5TOaO-6" value="Review App" style="rounded=1;whiteSpace=wrap;html=1;sketch=1;hachureGap=4;jiggle=2;curveFitting=1;fontFamily=Architects Daughter;fontSource=https%3A%2F%2Ffonts.googleapis.com%2Fcss%3Ffamily%3DArchitects%2BDaughter;fontSize=16;fillColor=#dae8fc;strokeColor=#6c8ebf;" vertex="1" parent="1">
          <mxGeometry x="200" y="270" width="120" height="60" as="geometry" />
        </mxCell>
        <mxCell id="A27N2ptXIXJFrek5TOaO-16" style="edgeStyle=orthogonalEdgeStyle;curved=1;rounded=0;hachureGap=4;orthogonalLoop=1;jettySize=auto;html=1;exitX=1;exitY=0.5;exitDx=0;exitDy=0;entryX=0;entryY=0.5;entryDx=0;entryDy=0;strokeColor=default;strokeWidth=2;align=center;verticalAlign=middle;fontFamily=Architects Daughter;fontSource=https%3A%2F%2Ffonts.googleapis.com%2Fcss%3Ffamily%3DArchitects%2BDaughter;fontSize=13;fontColor=default;labelBackgroundColor=default;endArrow=classic;flowAnimation=1;dashed=1;dashPattern=1 4;" edge="1" parent="1" source="A27N2ptXIXJFrek5TOaO-7" target="A27N2ptXIXJFrek5TOaO-8">
          <mxGeometry relative="1" as="geometry" />
        </mxCell>
        <mxCell id="A27N2ptXIXJFrek5TOaO-7" value="Staging" style="rounded=1;whiteSpace=wrap;html=1;sketch=1;hachureGap=4;jiggle=2;curveFitting=1;fontFamily=Architects Daughter;fontSource=https%3A%2F%2Ffonts.googleapis.com%2Fcss%3Ffamily%3DArchitects%2BDaughter;fontSize=16;fillColor=#dae8fc;strokeColor=#6c8ebf;" vertex="1" parent="1">
          <mxGeometry x="375" y="270" width="120" height="60" as="geometry" />
        </mxCell>
        <mxCell id="A27N2ptXIXJFrek5TOaO-8" value="Production" style="rounded=1;whiteSpace=wrap;html=1;sketch=1;hachureGap=4;jiggle=2;curveFitting=1;fontFamily=Architects Daughter;fontSource=https%3A%2F%2Ffonts.googleapis.com%2Fcss%3Ffamily%3DArchitects%2BDaughter;fontSize=16;fillColor=#dae8fc;strokeColor=#6c8ebf;" vertex="1" parent="1">
          <mxGeometry x="560" y="270" width="120" height="60" as="geometry" />
        </mxCell>
        <mxCell id="A27N2ptXIXJFrek5TOaO-14" value="Deploy" style="edgeStyle=orthogonalEdgeStyle;curved=1;rounded=0;hachureGap=4;orthogonalLoop=1;jettySize=auto;html=1;exitX=0.145;exitY=1;exitDx=0;exitDy=-4.35;exitPerimeter=0;strokeColor=default;strokeWidth=2;align=center;verticalAlign=middle;fontFamily=Architects Daughter;fontSource=https%3A%2F%2Ffonts.googleapis.com%2Fcss%3Ffamily%3DArchitects%2BDaughter;fontSize=13;fontColor=default;labelBackgroundColor=default;endArrow=classic;flowAnimation=1;entryX=0.25;entryY=0;entryDx=0;entryDy=0;" edge="1" parent="1" source="A27N2ptXIXJFrek5TOaO-9" target="A27N2ptXIXJFrek5TOaO-7">
          <mxGeometry x="0.1825" y="15" relative="1" as="geometry">
            <mxPoint as="offset" />
          </mxGeometry>
        </mxCell>
        <mxCell id="A27N2ptXIXJFrek5TOaO-9" value="Github" style="shape=cylinder3;whiteSpace=wrap;html=1;boundedLbl=1;backgroundOutline=1;size=15;sketch=1;hachureGap=4;jiggle=2;curveFitting=1;fontFamily=Architects Daughter;fontSource=https%3A%2F%2Ffonts.googleapis.com%2Fcss%3Ffamily%3DArchitects%2BDaughter;fontSize=16;verticalAlign=bottom;" vertex="1" parent="1">
          <mxGeometry x="385" y="-130" width="135" height="235" as="geometry" />
        </mxCell>
        <mxCell id="A27N2ptXIXJFrek5TOaO-11" value="Pull Request&lt;div&gt;/Commit&lt;/div&gt;" style="edgeStyle=orthogonalEdgeStyle;rounded=0;hachureGap=4;orthogonalLoop=1;jettySize=auto;html=1;fontFamily=Architects Daughter;fontSource=https%3A%2F%2Ffonts.googleapis.com%2Fcss%3Ffamily%3DArchitects%2BDaughter;curved=1;flowAnimation=1;strokeWidth=2;fontSize=13;" edge="1" parent="1" source="A27N2ptXIXJFrek5TOaO-10" target="A27N2ptXIXJFrek5TOaO-9">
          <mxGeometry relative="1" as="geometry" />
        </mxCell>
        <mxCell id="A27N2ptXIXJFrek5TOaO-10" value="Developer" style="shape=umlActor;verticalLabelPosition=bottom;verticalAlign=top;html=1;outlineConnect=0;sketch=1;hachureGap=4;jiggle=2;curveFitting=1;fontFamily=Architects Daughter;fontSource=https%3A%2F%2Ffonts.googleapis.com%2Fcss%3Ffamily%3DArchitects%2BDaughter;fontSize=16;" vertex="1" parent="1">
          <mxGeometry x="140" y="-47.5" width="35" height="70" as="geometry" />
        </mxCell>
        <mxCell id="A27N2ptXIXJFrek5TOaO-12" value="Deploy" style="edgeStyle=orthogonalEdgeStyle;rounded=0;hachureGap=4;orthogonalLoop=1;jettySize=auto;html=1;fontFamily=Architects Daughter;fontSource=https%3A%2F%2Ffonts.googleapis.com%2Fcss%3Ffamily%3DArchitects%2BDaughter;curved=1;flowAnimation=1;strokeWidth=2;fontSize=13;exitX=0.5;exitY=0.5;exitDx=0;exitDy=0;exitPerimeter=0;entryX=0.75;entryY=0;entryDx=0;entryDy=0;" edge="1" parent="1" source="A27N2ptXIXJFrek5TOaO-10" target="A27N2ptXIXJFrek5TOaO-6">
          <mxGeometry x="0.2956" y="-20" relative="1" as="geometry">
            <mxPoint x="368" y="120" as="sourcePoint" />
            <mxPoint x="640" y="120" as="targetPoint" />
            <mxPoint as="offset" />
          </mxGeometry>
        </mxCell>
        <mxCell id="A27N2ptXIXJFrek5TOaO-18" value="" style="shape=image;verticalLabelPosition=bottom;labelBackgroundColor=default;verticalAlign=top;aspect=fixed;imageAspect=0;image=https://raw.githubusercontent.com/bridgecrewio/checkov/main/docs/web/images/checkov_blue_logo.png;" vertex="1" parent="1">
          <mxGeometry x="640" y="-2.42" width="187" height="37.43" as="geometry" />
        </mxCell>
        <mxCell id="A27N2ptXIXJFrek5TOaO-19" value="Prisma Cloud" style="ellipse;shape=cloud;whiteSpace=wrap;html=1;sketch=1;hachureGap=4;jiggle=2;curveFitting=1;fontFamily=Architects Daughter;fontSource=https%3A%2F%2Ffonts.googleapis.com%2Fcss%3Ffamily%3DArchitects%2BDaughter;fontSize=16;labelBackgroundColor=none;" vertex="1" parent="1">
          <mxGeometry x="653.5" y="-170" width="160" height="90" as="geometry" />
        </mxCell>
        <mxCell id="A27N2ptXIXJFrek5TOaO-24" style="edgeStyle=orthogonalEdgeStyle;curved=1;rounded=0;hachureGap=4;orthogonalLoop=1;jettySize=auto;html=1;exitX=1;exitY=0.5;exitDx=0;exitDy=0;exitPerimeter=0;entryX=0;entryY=0.5;entryDx=0;entryDy=0;strokeColor=#009900;strokeWidth=2;align=center;verticalAlign=middle;fontFamily=Architects Daughter;fontSource=https%3A%2F%2Ffonts.googleapis.com%2Fcss%3Ffamily%3DArchitects%2BDaughter;fontSize=13;fontColor=default;labelBackgroundColor=default;endArrow=classic;flowAnimation=1;" edge="1" parent="1" source="A27N2ptXIXJFrek5TOaO-20" target="A27N2ptXIXJFrek5TOaO-18">
          <mxGeometry relative="1" as="geometry" />
        </mxCell>
        <mxCell id="A27N2ptXIXJFrek5TOaO-27" value="Local&lt;div&gt;Scan&lt;/div&gt;" style="edgeLabel;html=1;align=center;verticalAlign=middle;resizable=0;points=[];sketch=1;hachureGap=4;jiggle=2;curveFitting=1;fontFamily=Architects Daughter;fontSource=https%3A%2F%2Ffonts.googleapis.com%2Fcss%3Ffamily%3DArchitects%2BDaughter;fontSize=13;fontColor=default;labelBackgroundColor=default;" vertex="1" connectable="0" parent="A27N2ptXIXJFrek5TOaO-24">
          <mxGeometry x="0.1385" y="-3" relative="1" as="geometry">
            <mxPoint as="offset" />
          </mxGeometry>
        </mxCell>
        <mxCell id="A27N2ptXIXJFrek5TOaO-20" value="app.json" style="whiteSpace=wrap;html=1;shape=mxgraph.basic.document;sketch=1;hachureGap=4;jiggle=2;curveFitting=1;fontFamily=Architects Daughter;fontSource=https%3A%2F%2Ffonts.googleapis.com%2Fcss%3Ffamily%3DArchitects%2BDaughter;fontSize=13;labelBackgroundColor=default;fillColor=#d5e8d4;strokeColor=#82b366;" vertex="1" parent="1">
          <mxGeometry x="450" y="-3.710000000000001" width="60" height="40" as="geometry" />
        </mxCell>
        <mxCell id="A27N2ptXIXJFrek5TOaO-21" value="Code&amp;nbsp;&lt;div&gt;Security Check&lt;/div&gt;" style="edgeStyle=orthogonalEdgeStyle;curved=1;rounded=0;hachureGap=4;orthogonalLoop=1;jettySize=auto;html=1;exitX=0.875;exitY=-0.083;exitDx=0;exitDy=0;entryX=0.5;entryY=1;entryDx=0;entryDy=0;entryPerimeter=0;strokeColor=#009900;strokeWidth=2;align=center;verticalAlign=middle;fontFamily=Architects Daughter;fontSource=https%3A%2F%2Ffonts.googleapis.com%2Fcss%3Ffamily%3DArchitects%2BDaughter;fontSize=13;fontColor=default;labelBackgroundColor=default;endArrow=classic;flowAnimation=1;exitPerimeter=0;" edge="1" parent="1" source="A27N2ptXIXJFrek5TOaO-7" target="A27N2ptXIXJFrek5TOaO-20">
          <mxGeometry relative="1" as="geometry" />
        </mxCell>
        <mxCell id="A27N2ptXIXJFrek5TOaO-25" value="Application Codes" style="whiteSpace=wrap;html=1;shape=mxgraph.basic.document;sketch=1;hachureGap=4;jiggle=2;curveFitting=1;fontFamily=Architects Daughter;fontSource=https%3A%2F%2Ffonts.googleapis.com%2Fcss%3Ffamily%3DArchitects%2BDaughter;fontSize=13;labelBackgroundColor=none;fillColor=#fff2cc;strokeColor=#d6b656;" vertex="1" parent="1">
          <mxGeometry x="417.5" y="-90" width="70" height="70" as="geometry" />
        </mxCell>
        <mxCell id="A27N2ptXIXJFrek5TOaO-26" value="Upload Scan Result" style="edgeStyle=orthogonalEdgeStyle;curved=1;rounded=0;hachureGap=4;orthogonalLoop=1;jettySize=auto;html=1;exitX=0.5;exitY=0;exitDx=0;exitDy=0;entryX=0.5;entryY=1;entryDx=0;entryDy=0;entryPerimeter=0;strokeColor=#009900;strokeWidth=2;align=center;verticalAlign=middle;fontFamily=Architects Daughter;fontSource=https%3A%2F%2Ffonts.googleapis.com%2Fcss%3Ffamily%3DArchitects%2BDaughter;fontSize=13;fontColor=default;labelBackgroundColor=default;endArrow=classic;flowAnimation=1;" edge="1" parent="1" source="A27N2ptXIXJFrek5TOaO-18" target="A27N2ptXIXJFrek5TOaO-19">
          <mxGeometry relative="1" as="geometry" />
        </mxCell>
        <mxCell id="A27N2ptXIXJFrek5TOaO-32" value="&lt;ul style=&quot;font-size: 16px;&quot;&gt;&lt;li style=&quot;font-size: 16px;&quot;&gt;Embedded Secret&lt;/li&gt;&lt;li style=&quot;font-size: 16px;&quot;&gt;Vulnerabilities&lt;/li&gt;&lt;li style=&quot;font-size: 16px;&quot;&gt;SAST*&lt;/li&gt;&lt;li style=&quot;font-size: 16px;&quot;&gt;OSS License Issue&lt;/li&gt;&lt;li style=&quot;font-size: 16px;&quot;&gt;IaC Best Practices&lt;/li&gt;&lt;/ul&gt;" style="shape=callout;whiteSpace=wrap;html=1;perimeter=calloutPerimeter;sketch=1;hachureGap=4;jiggle=2;curveFitting=1;fontFamily=Architects Daughter;fontSource=https%3A%2F%2Ffonts.googleapis.com%2Fcss%3Ffamily%3DArchitects%2BDaughter;fontSize=16;labelBackgroundColor=none;flipH=1;flipV=1;position2=0.75;align=left;fillColor=#ffcd28;gradientColor=#ffa500;strokeColor=#d79b00;" vertex="1" parent="1">
          <mxGeometry x="560" y="35.01" width="230" height="143.71" as="geometry" />
        </mxCell>
        <mxCell id="A27N2ptXIXJFrek5TOaO-33" value="" style="shape=image;verticalLabelPosition=bottom;labelBackgroundColor=default;verticalAlign=top;aspect=fixed;imageAspect=0;image=https://upload.wikimedia.org/wikipedia/commons/thumb/e/ec/Heroku_logo.svg/2560px-Heroku_logo.svg.png;" vertex="1" parent="1">
          <mxGeometry x="160" y="178.72" width="175.71" height="49.2" as="geometry" />
        </mxCell>
        <mxCell id="A27N2ptXIXJFrek5TOaO-34" style="edgeStyle=orthogonalEdgeStyle;curved=1;rounded=0;hachureGap=4;orthogonalLoop=1;jettySize=auto;html=1;exitX=0.5;exitY=1;exitDx=0;exitDy=0;exitPerimeter=0;entryX=0.145;entryY=1;entryDx=0;entryDy=-4.35;entryPerimeter=0;strokeColor=default;strokeWidth=2;align=center;verticalAlign=middle;fontFamily=Architects Daughter;fontSource=https%3A%2F%2Ffonts.googleapis.com%2Fcss%3Ffamily%3DArchitects%2BDaughter;fontSize=13;fontColor=default;labelBackgroundColor=default;endArrow=oval;flowAnimation=1;dashed=1;dashPattern=1 2;endFill=1;" edge="1" parent="1" source="A27N2ptXIXJFrek5TOaO-25" target="A27N2ptXIXJFrek5TOaO-9">
          <mxGeometry relative="1" as="geometry" />
        </mxCell>
        <mxCell id="A27N2ptXIXJFrek5TOaO-35" value="" style="shape=image;verticalLabelPosition=bottom;labelBackgroundColor=default;verticalAlign=top;aspect=fixed;imageAspect=0;image=https://cdn-icons-png.flaticon.com/512/25/25231.png;" vertex="1" parent="1">
          <mxGeometry x="411.5" y="-220" width="82" height="82" as="geometry" />
        </mxCell>
        <mxCell id="A27N2ptXIXJFrek5TOaO-37" value="" style="shape=image;imageAspect=0;aspect=fixed;verticalLabelPosition=bottom;verticalAlign=top;sketch=1;hachureGap=4;jiggle=2;curveFitting=1;fontFamily=Architects Daughter;fontSource=https%3A%2F%2Ffonts.googleapis.com%2Fcss%3Ffamily%3DArchitects%2BDaughter;fontSize=13;fontColor=default;labelBackgroundColor=default;image=https://images.crunchbase.com/image/upload/c_pad,f_auto,q_auto:eco,dpr_1/rfuwf3yqq2cermkmrej6;" vertex="1" parent="1">
          <mxGeometry x="660" y="-188" width="38.37" height="50" as="geometry" />
        </mxCell>
      </root>
    </mxGraphModel>
  </diagram>
</mxfile>
